<svg id="Layer_1" data-name="Layer 1" xmlns="http://www.w3.org/2000/svg" viewBox="0 0 46.8 46.8">
  <title>icon-overcast</title>
  <g id="pzSgpm.tif">
    <g>
      <path d="M46,23.43A22.24,22.24,0,1,1,23.83,1.15,22.32,22.32,0,0,1,46,23.43ZM30.06,42.6a20.29,20.29,0,1,0-12.69,0c1.71-5.14,3.55-10.52,5.19-15.44A5.91,5.91,0,0,1,20.28,25,3.74,3.74,0,0,1,22,20a3.82,3.82,0,0,1,5.44,2.48c.49,1.76-.25,3.2-1.88,4.28-.24.18-.32.23-.53.37,0,.26,1.46,4.34,2.05,6.17C28.07,36.37,29.05,39.45,30.06,42.6ZM23.7,38.52a26.19,26.19,0,0,0,1.56-2.36,2,2,0,0,0,.11-1.35c-.29-1-.7-2-1.07-2.92-.15-.38-.33-.74-.6-1.34-.67,1.74-1.25,3.21-1.78,4.7A1,1,0,0,0,22,36C22.55,36.85,23.11,37.64,23.7,38.52Zm4.64,4.63.26-.24L26.53,37.5l-1.67,2.4Zm-9.48-.22.27.18L22.48,40l-1.68-2.17Zm7.3.57c-.84-.75-1.48-1.36-2.17-1.92a.72.72,0,0,0-.69,0c-.68.56-1.31,1.18-2.15,2Z"/>
      <path d="M33.63,13.52l1.24-1.24c6.3,5.57,6.46,16.43,0,22.24l-1.23-1.26a14.17,14.17,0,0,0,0-19.74Z"/>
      <path d="M13.8,33.26l-1.23,1.25c-6.45-5.8-6.29-16.65,0-22.23l1.24,1.24a14.18,14.18,0,0,0,0,19.74Z"/>
      <path d="M16.84,16.52,18.16,18A6.73,6.73,0,0,0,16,23.34a6.57,6.57,0,0,0,2.22,5.43l-1.45,1.39C13,26.26,12.88,20.75,16.84,16.52Z"/>
      <path d="M30.7,16.56c4,4.54,3.56,9.88-.05,13.66L29.3,28.78a6.66,6.66,0,0,0,2.17-5.34A6.58,6.58,0,0,0,29.26,18Z"/>
    </g>
  </g>
</svg>
