<svg id="Layer_1" data-name="Layer 1" xmlns="http://www.w3.org/2000/svg" viewBox="0 0 46.8 46.8">
  <title>icon-rss</title>
  <path d="M45.57,23.44c.19,12.08-10,22.19-22.21,22.15A22.33,22.33,0,0,1,1.23,23.31,22.33,22.33,0,0,1,23.53,1.21C35.55,1.25,45.8,11.25,45.57,23.44Zm-9,10.67c.05-13.81-12-23.8-23.43-23.39v4.64a18.53,18.53,0,0,1,13.22,5.52A19.41,19.41,0,0,1,32,34.12ZM13.06,23.27C19.62,24.1,23.2,27.71,24,34.11h4.56c.17-8.53-7.89-15.9-15.47-15.22v4.39Zm6.3,7.78A3.15,3.15,0,1,0,13.08,31a3.05,3.05,0,0,0,3.27,3.17A3.05,3.05,0,0,0,19.37,31.05Z"/>
</svg>
