<?xml version="1.0" standalone="no"?>
<!DOCTYPE svg PUBLIC "-//W3C//DTD SVG 20010904//EN"
 "http://www.w3.org/TR/2001/REC-SVG-20010904/DTD/svg10.dtd">
<svg version="1.0" xmlns="http://www.w3.org/2000/svg"
 width="16.000000pt" height="16.000000pt" viewBox="0 0 16.000000 16.000000"
 preserveAspectRatio="xMidYMid meet">
<metadata>
Created by potrace 1.11, written by Peter Selinger 2001-2013
</metadata>
<g transform="translate(0.000000,16.000000) scale(0.005333,-0.005333)"
fill="#000000" stroke="none">
<path d="M1295 2986 c-640 -93 -1141 -571 -1267 -1209 -31 -158 -31 -396 0
-554 59 -300 198 -562 409 -776 218 -220 487 -363 798 -424 128 -25 396 -24
530 1 718 134 1235 752 1235 1476 0 715 -505 1329 -1209 1471 -125 25 -374 33
-496 15z m227 -118 c10 -9 55 -173 127 -473 62 -253 116 -476 121 -495 5 -19
12 -45 15 -57 5 -18 2 -23 -12 -24 -10 0 -3 -5 15 -10 17 -5 32 -14 32 -20 0
-6 7 -9 15 -5 8 3 21 -2 30 -10 8 -9 15 -11 15 -6 0 7 883 -204 968 -232 16
-5 22 -15 22 -36 0 -23 -6 -30 -32 -39 -29 -9 -777 -194 -833 -206 -11 -2 -49
-11 -84 -21 -64 -17 -64 -17 -81 6 -9 12 -23 20 -31 17 -10 -4 -9 -6 4 -6 25
-1 21 -35 -7 -50 -16 -9 -22 -19 -18 -33 3 -14 -1 -21 -17 -25 -22 -6 -30 -25
-8 -21 6 2 11 -1 11 -7 -1 -5 -55 -228 -120 -493 -161 -656 -148 -652 -288
-80 -55 221 -100 410 -101 418 0 9 -4 20 -7 25 -8 14 -31 126 -30 148 0 9 -4
17 -9 17 -6 0 -8 13 -5 33 3 17 3 27 0 20 -4 -9 -11 -9 -32 0 -15 6 -29 14
-32 17 -3 3 -16 6 -30 7 -46 4 -974 234 -987 245 -17 14 -17 42 0 56 17 15
958 244 974 238 7 -3 13 -2 13 3 0 7 41 21 74 25 5 1 14 18 20 39 6 23 15 35
20 30 5 -5 7 -1 3 10 -4 10 -1 17 6 17 9 0 9 2 -1 8 -9 6 15 118 104 483 108
440 126 499 154 499 3 0 13 -6 22 -12z m-535 -750 c223 -134 211 -121 188
-203 -12 -45 -24 -69 -39 -77 -11 -6 -23 -11 -26 -10 -3 1 -22 -3 -42 -9 -25
-6 -44 -6 -56 0 -20 11 -232 353 -232 375 0 16 10 26 27 26 7 0 88 -46 180
-102z m1231 81 c3 -15 -194 -349 -223 -378 -12 -12 -23 -12 -80 4 -71 19 -76
24 -94 99 -9 39 -9 52 1 67 19 28 350 228 373 226 11 -1 21 -9 23 -18z m-1140
-1028 c1 -4 13 -6 25 -4 12 2 30 -2 40 -9 24 -18 51 -122 38 -146 -13 -24
-359 -234 -380 -230 -8 2 -17 11 -19 20 -3 15 181 329 217 371 11 14 24 17 46
13 16 -4 31 -10 33 -15z m915 7 c25 -19 228 -359 225 -377 -2 -9 -10 -17 -19
-19 -15 -3 -349 194 -377 222 -11 11 -11 23 -1 69 17 73 28 86 86 102 62 17
66 17 86 3z"/>
<path d="M1565 2080 c3 -5 8 -10 11 -10 2 0 4 5 4 10 0 6 -5 10 -11 10 -5 0
-7 -4 -4 -10z"/>
<path d="M1506 2015 c-11 -8 -15 -15 -9 -15 7 0 15 5 18 10 4 6 11 7 17 4 7
-4 8 -2 4 4 -9 14 -7 15 -30 -3z"/>
<path d="M1471 2004 c0 -11 3 -14 6 -6 3 7 2 16 -1 19 -3 4 -6 -2 -5 -13z"/>
<path d="M1436 1993 c-6 -14 -5 -15 5 -6 7 7 10 15 7 18 -3 3 -9 -2 -12 -12z"/>
<path d="M1640 1970 c0 -5 5 -10 10 -10 6 0 10 5 10 10 0 6 -4 10 -10 10 -5 0
-10 -4 -10 -10z"/>
<path d="M1510 1959 c0 -5 4 -8 9 -4 5 3 17 -5 25 -17 9 -12 18 -20 21 -17 2
3 -2 15 -11 27 -16 23 -44 30 -44 11z"/>
<path d="M1478 1942 c-15 -6 -15 -9 -1 -27 11 -14 14 -15 10 -4 -3 9 0 22 6
28 12 12 10 13 -15 3z"/>
<path d="M1580 1920 c0 -5 5 -10 11 -10 5 0 7 5 4 10 -3 6 -8 10 -11 10 -2 0
-4 -4 -4 -10z"/>
<path d="M1520 1916 c0 -2 8 -10 18 -17 15 -13 16 -12 3 4 -13 16 -21 21 -21
13z"/>
<path d="M1475 1880 c4 -6 11 -8 16 -5 14 9 11 15 -7 15 -8 0 -12 -5 -9 -10z"/>
<path d="M1251 1864 c0 -11 3 -14 6 -6 3 7 2 16 -1 19 -3 4 -6 -2 -5 -13z"/>
<path d="M1385 1860 c-3 -5 -1 -10 4 -10 6 0 11 5 11 10 0 6 -2 10 -4 10 -3 0
-8 -4 -11 -10z"/>
<path d="M1560 1855 c-8 -9 -8 -15 -2 -15 12 0 26 19 19 26 -2 2 -10 -2 -17
-11z"/>
<path d="M1357 1834 c6 -15 23 -19 23 -5 0 5 -7 11 -14 14 -10 4 -13 1 -9 -9z"/>
<path d="M1610 1822 c0 -12 3 -12 15 -2 8 6 18 9 23 7 4 -3 14 -1 22 4 11 6 4
9 -22 7 -25 -1 -38 -7 -38 -16z"/>
<path d="M1416 1811 c-3 -4 6 -6 19 -3 14 2 25 6 25 8 0 8 -39 4 -44 -5z"/>
<path d="M1490 1810 c0 -5 5 -10 11 -10 5 0 7 5 4 10 -3 6 -8 10 -11 10 -2 0
-4 -4 -4 -10z"/>
<path d="M1358 1793 c7 -3 16 -2 19 1 4 3 -2 6 -13 5 -11 0 -14 -3 -6 -6z"/>
<path d="M1685 1790 c-3 -5 -1 -10 4 -10 6 0 11 5 11 10 0 6 -2 10 -4 10 -3 0
-8 -4 -11 -10z"/>
<path d="M1210 1780 c0 -5 4 -10 9 -10 6 0 13 5 16 10 3 6 -1 10 -9 10 -9 0
-16 -4 -16 -10z"/>
<path d="M1280 1779 c0 -5 5 -7 10 -4 6 3 10 8 10 11 0 2 -4 4 -10 4 -5 0 -10
-5 -10 -11z"/>
<path d="M1475 1770 c3 -5 11 -10 16 -10 6 0 7 5 4 10 -3 6 -11 10 -16 10 -6
0 -7 -4 -4 -10z"/>
<path d="M1525 1770 c-3 -5 -1 -10 4 -10 6 0 11 5 11 10 0 6 -2 10 -4 10 -3 0
-8 -4 -11 -10z"/>
<path d="M1158 1763 c7 -3 16 -2 19 1 4 3 -2 6 -13 5 -11 0 -14 -3 -6 -6z"/>
<path d="M1440 1755 c0 -8 7 -18 15 -21 8 -4 15 -13 15 -22 0 -8 3 -12 7 -8 9
9 11 46 2 40 -4 -2 -15 3 -23 12 -15 14 -16 14 -16 -1z"/>
<path d="M1553 1756 c0 -8 8 -11 19 -8 10 2 15 8 12 13 -8 14 -31 11 -31 -5z"/>
<path d="M1775 1760 c-3 -5 -1 -10 4 -10 6 0 11 5 11 10 0 6 -2 10 -4 10 -3 0
-8 -4 -11 -10z"/>
<path d="M1805 1760 c-3 -5 -1 -10 4 -10 6 0 11 5 11 10 0 6 -2 10 -4 10 -3 0
-8 -4 -11 -10z"/>
<path d="M1372 1751 c-11 -7 -11 -9 1 -14 9 -3 18 1 21 9 6 16 -2 18 -22 5z"/>
<path d="M1688 1730 c2 -16 7 -30 11 -30 11 0 7 53 -5 57 -7 2 -9 -8 -6 -27z"/>
<path d="M1227 1743 c-10 -9 -9 -23 1 -23 5 0 9 7 9 15 0 17 -1 18 -10 8z"/>
<path d="M1285 1740 c-22 -9 -21 -10 12 -14 14 -2 19 2 16 11 -3 7 -6 13 -7
12 0 0 -10 -4 -21 -9z"/>
<path d="M1175 1713 c8 -32 13 -39 21 -30 4 4 1 13 -5 21 -7 8 -10 20 -6 26 3
5 1 10 -5 10 -8 0 -10 -9 -5 -27z"/>
<path d="M1506 1731 c-4 -5 3 -7 14 -4 23 6 26 13 6 13 -8 0 -17 -4 -20 -9z"/>
<path d="M1843 1733 c9 -2 23 -2 30 0 6 3 -1 5 -18 5 -16 0 -22 -2 -12 -5z"/>
<path d="M1901 1735 c1 -19 18 -51 18 -35 0 8 -4 22 -9 30 -5 8 -9 11 -9 5z"/>
<path d="M1406 1715 c4 -8 12 -15 20 -15 8 0 14 -5 14 -12 0 -6 3 -8 7 -5 7 8
-25 47 -38 47 -5 0 -6 -7 -3 -15z"/>
<path d="M1560 1726 c0 -2 9 -6 20 -9 11 -3 20 -1 20 4 0 5 -9 9 -20 9 -11 0
-20 -2 -20 -4z"/>
<path d="M1548 1709 c7 -9 9 -19 5 -22 -3 -4 0 -7 7 -7 30 0 -7 -19 -50 -26
l-44 -7 19 29 c12 19 13 25 3 17 -8 -7 -17 -10 -20 -7 -3 2 -8 -2 -11 -11 -4
-9 1 -20 13 -27 14 -9 16 -15 8 -26 -6 -7 -7 -12 -2 -11 21 4 24 -2 13 -23
l-12 -22 -10 24 c-6 14 -9 28 -9 32 1 4 -4 5 -12 2 -8 -3 -16 6 -22 24 -8 26
-11 27 -34 15 l-25 -13 28 0 c17 0 27 -5 27 -15 0 -8 9 -30 19 -49 18 -31 18
-35 4 -41 -9 -3 -21 -1 -27 5 -15 15 -36 12 -36 -5 0 -8 -4 -15 -8 -15 -4 0
-8 -24 -8 -54 1 -30 5 -52 9 -49 5 3 7 18 5 34 -3 21 0 30 12 34 23 7 50 -4
50 -21 0 -8 10 -14 23 -14 39 0 67 -12 67 -28 0 -13 -2 -13 -18 1 -24 22 -62
22 -62 1 0 -13 -3 -14 -14 -4 -8 6 -12 18 -9 26 3 8 0 14 -7 14 -6 0 -8 5 -5
10 3 6 2 10 -4 10 -16 0 -22 -18 -9 -23 9 -4 10 -8 2 -14 -15 -11 -25 -43 -14
-43 5 0 11 8 13 18 4 13 5 11 6 -5 0 -13 -4 -23 -11 -23 -6 0 -8 -3 -4 -7 4
-5 14 1 22 11 10 15 14 16 14 5 0 -8 9 -15 20 -16 11 -1 18 2 15 7 -3 5 -1 11
5 15 6 4 8 11 5 16 -4 5 -4 9 -1 9 8 0 76 -67 76 -75 0 -3 7 -13 15 -21 13
-14 15 -13 15 5 0 12 -5 21 -12 21 -6 0 -9 2 -6 5 3 3 17 1 32 -4 14 -6 26 -7
26 -2 0 5 -7 11 -15 15 -8 3 -15 11 -15 18 0 9 3 8 10 -2 5 -8 10 -11 10 -6 0
5 9 1 19 -8 11 -10 24 -15 30 -12 5 3 17 -1 25 -10 9 -8 16 -12 16 -7 0 5 -5
14 -12 21 -8 8 -8 15 1 26 7 8 10 20 6 26 -9 15 -28 1 -21 -16 3 -8 -1 -14
-10 -14 -8 0 -12 -4 -9 -10 3 -5 2 -10 -4 -10 -16 0 -24 22 -11 30 7 4 9 13 5
20 -6 10 -9 9 -15 0 -9 -14 -30 -5 -30 13 0 8 3 8 9 -1 6 -11 10 -10 15 3 4
12 0 18 -14 22 -11 3 -20 9 -20 13 0 10 31 22 38 15 3 -3 0 -5 -7 -5 -6 0 -1
-12 12 -26 20 -21 28 -24 43 -15 18 10 18 10 -2 11 -13 0 -25 10 -33 26 -14
32 -8 42 14 20 15 -14 19 -14 46 -1 16 9 29 21 29 28 0 8 -3 8 -9 -2 -11 -17
-23 1 -15 23 4 9 1 16 -6 16 -8 0 -11 -11 -8 -30 3 -16 1 -30 -4 -30 -17 0
-49 21 -44 28 3 5 -4 9 -15 9 -16 2 -18 -1 -9 -12 8 -9 8 -15 0 -20 -16 -10
-24 23 -10 40 15 18 7 19 -21 5 -15 -9 -21 -7 -25 5 -6 14 -8 14 -20 -2 -12
-16 -15 -16 -23 -3 -8 11 -5 17 11 23 17 6 18 10 7 23 -20 24 -20 46 -1 41 9
-2 16 -8 15 -14 -1 -6 4 -14 13 -17 12 -5 13 -2 3 16 -10 18 -9 20 5 15 14 -6
16 -3 11 16 -4 12 -16 31 -28 42 -11 11 -16 13 -9 4z m-48 -171 c0 -18 -2 -20
-9 -8 -6 8 -7 18 -5 22 9 14 14 9 14 -14z m-56 -10 c4 3 4 -1 1 -10 -6 -14
-10 -15 -26 -5 -25 15 -25 31 0 18 10 -6 21 -7 25 -3z m139 -11 c7 -18 -9 -44
-20 -33 -4 5 -2 11 5 13 10 4 8 9 -5 19 -16 12 -16 13 -2 14 9 0 19 -6 22 -13z
m-93 -31 c0 -2 -7 -7 -16 -10 -8 -3 -12 -2 -9 4 6 10 25 14 25 6z m50 -6 c0
-5 -5 -10 -11 -10 -5 0 -7 5 -4 10 3 6 8 10 11 10 2 0 4 -4 4 -10z m30 -80 c0
-5 -8 -10 -17 -10 -15 0 -16 2 -3 10 19 12 20 12 20 0z"/>
<path d="M1230 1698 c0 -4 4 -8 9 -8 6 0 12 4 15 8 3 5 -1 9 -9 9 -8 0 -15 -4
-15 -9z"/>
<path d="M1370 1702 c0 -5 7 -9 15 -9 8 0 12 4 9 9 -3 4 -9 8 -15 8 -5 0 -9
-4 -9 -8z"/>
<path d="M1610 1701 c0 -5 5 -13 10 -16 6 -3 10 -2 10 4 0 5 -4 13 -10 16 -5
3 -10 2 -10 -4z"/>
<path d="M1646 1694 c-9 -24 -7 -34 7 -28 7 2 13 13 13 24 0 24 -11 26 -20 4z"/>
<path d="M1820 1700 c-9 -6 -10 -10 -3 -10 6 0 15 5 18 10 8 12 4 12 -15 0z"/>
<path d="M1300 1690 c-12 -7 -10 -9 8 -7 12 0 22 5 22 9 0 11 -12 10 -30 -2z"/>
<path d="M1734 1683 c10 -13 23 -20 29 -16 7 4 6 8 -3 11 -8 3 -22 10 -30 16
-8 6 -7 1 4 -11z"/>
<path d="M1515 1680 c-3 -5 1 -10 10 -10 9 0 13 5 10 10 -3 6 -8 10 -10 10 -2
0 -7 -4 -10 -10z"/>
<path d="M1321 1671 c-8 -5 -21 -7 -30 -4 -9 2 -8 -1 4 -8 31 -20 55 -18 55 3
0 20 -8 22 -29 9z"/>
<path d="M1607 1650 c3 -11 9 -20 15 -20 5 0 4 9 -2 20 -6 11 -12 20 -14 20
-2 0 -2 -9 1 -20z"/>
<path d="M1178 1653 c7 -3 16 -2 19 1 4 3 -2 6 -13 5 -11 0 -14 -3 -6 -6z"/>
<path d="M1249 1643 c-13 -16 -12 -17 4 -4 9 7 17 15 17 17 0 8 -8 3 -21 -13z"/>
<path d="M1781 1646 c-7 -8 -8 -17 -3 -20 6 -3 12 3 15 14 6 24 4 25 -12 6z"/>
<path d="M1815 1640 c2 -27 15 -38 15 -12 0 11 -4 23 -8 26 -5 3 -8 -4 -7 -14z"/>
<path d="M1647 1629 c-4 -15 -11 -20 -21 -16 -9 4 -16 2 -16 -3 0 -6 -9 -10
-20 -10 -11 0 -20 -7 -20 -14 0 -31 91 17 96 50 3 22 -13 16 -19 -7z"/>
<path d="M1692 1630 c-15 -24 -15 -33 -2 -25 6 3 10 0 11 -7 0 -7 5 -2 10 11
12 31 -2 47 -19 21z"/>
<path d="M1000 1625 c7 -9 15 -13 17 -11 7 7 -7 26 -19 26 -6 0 -6 -6 2 -15z"/>
<path d="M1130 1620 c-19 -11 -31 -19 -27 -20 5 0 17 5 28 10 13 7 19 7 19 0
0 -5 4 -10 9 -10 6 0 9 9 8 20 -1 11 -1 20 -2 20 0 -1 -16 -9 -35 -20z"/>
<path d="M1322 1613 c-22 -43 -1 -145 25 -119 3 3 1 6 -6 6 -7 0 -5 9 6 27 10
15 13 24 6 20 -7 -5 -16 0 -22 12 -11 21 -5 51 10 51 5 0 9 5 9 10 0 16 -19
11 -28 -7z m12 -88 c-4 -8 -8 -15 -10 -15 -2 0 -4 7 -4 15 0 8 4 15 10 15 5 0
7 -7 4 -15z"/>
<path d="M1727 1611 c-3 -14 -1 -18 9 -14 16 6 18 19 5 27 -5 3 -11 -3 -14
-13z"/>
<path d="M1247 1601 c-4 -17 -3 -17 27 -3 43 21 43 22 9 22 -21 0 -32 -6 -36
-19z"/>
<path d="M1389 1613 c-1 -5 -1 -11 0 -15 1 -7 -14 -12 -31 -9 -4 0 -5 -6 -1
-14 4 -11 9 -13 18 -5 13 11 45 4 45 -11 0 -5 4 -9 9 -9 11 0 3 39 -12 58 -11
13 -26 16 -28 5z"/>
<path d="M1651 1582 c-8 -14 -6 -19 5 -19 7 0 14 9 14 19 0 10 -2 18 -5 18 -2
0 -9 -8 -14 -18z"/>
<path d="M1774 1586 c11 -9 15 -16 8 -16 -6 0 -9 -7 -6 -15 4 -8 13 -15 21
-15 12 0 13 3 4 14 -10 12 -8 13 11 9 13 -4 20 -2 15 3 -5 5 -12 9 -15 9 -4 1
-18 6 -32 13 -23 12 -24 12 -6 -2z"/>
<path d="M1275 1580 c-16 -7 -17 -9 -3 -9 9 -1 20 4 23 9 7 11 7 11 -20 0z"/>
<path d="M1867 1576 c-4 -10 -5 -21 -2 -24 9 -9 17 6 13 25 -3 17 -4 17 -11
-1z"/>
<path d="M1900 1579 c0 -5 5 -7 10 -4 6 3 10 8 10 11 0 2 -4 4 -10 4 -5 0 -10
-5 -10 -11z"/>
<path d="M1000 1548 c0 -12 3 -17 8 -12 4 5 11 12 15 15 5 3 2 9 -7 12 -12 5
-16 0 -16 -15z"/>
<path d="M1087 1539 c6 -23 9 -24 16 -5 3 8 0 17 -7 19 -10 4 -12 -1 -9 -14z"/>
<path d="M1240 1558 c-6 -19 -4 -66 3 -61 4 2 7 -1 7 -7 0 -6 5 -8 10 -5 15 9
12 27 -2 20 -7 -4 -4 1 6 9 16 13 22 13 28 3 5 -8 8 -4 8 11 0 12 -4 22 -10
22 -5 0 -10 -4 -10 -10 0 -17 -28 -11 -33 8 -3 9 -6 14 -7 10z"/>
<path d="M1891 1541 c-10 -6 -10 -10 -1 -16 13 -8 24 -1 19 14 -3 6 -10 7 -18
2z"/>
<path d="M1970 1539 c0 -5 5 -7 10 -4 6 3 10 8 10 11 0 2 -4 4 -10 4 -5 0 -10
-5 -10 -11z"/>
<path d="M1205 1529 c-4 -6 -5 -12 -2 -15 2 -3 7 2 10 11 7 17 1 20 -8 4z"/>
<path d="M1836 1525 c4 -8 10 -15 15 -15 5 0 9 -8 9 -19 0 -10 8 -25 18 -32
15 -12 16 -12 5 2 -7 9 -14 28 -15 42 -1 14 -6 23 -10 21 -4 -3 -8 0 -8 5 0 6
-4 11 -10 11 -5 0 -7 -7 -4 -15z"/>
<path d="M1926 1527 c3 -10 9 -15 12 -12 3 3 0 11 -7 18 -10 9 -11 8 -5 -6z"/>
<path d="M2005 1530 c-3 -5 -1 -10 4 -10 6 0 11 5 11 10 0 6 -2 10 -4 10 -3 0
-8 -4 -11 -10z"/>
<path d="M974 1505 c7 -37 14 -42 14 -10 0 14 -5 28 -10 31 -5 3 -6 -7 -4 -21z"/>
<path d="M1743 1504 c-12 -13 -20 -24 -17 -24 11 0 54 33 54 41 0 15 -14 8
-37 -17z"/>
<path d="M940 1513 c5 -2 8 -9 4 -14 -3 -5 0 -9 6 -9 15 0 7 23 -8 26 -7 1 -8
0 -2 -3z"/>
<path d="M2137 1499 c4 -13 8 -18 11 -10 2 7 -1 18 -6 23 -8 8 -9 4 -5 -13z"/>
<path d="M1121 1491 c-9 -16 -7 -17 15 -13 19 3 22 7 13 18 -15 18 -16 18 -28
-5z"/>
<path d="M1986 1493 c-6 -14 -5 -15 5 -6 7 7 10 15 7 18 -3 3 -9 -2 -12 -12z"/>
<path d="M1920 1488 c0 -9 -6 -19 -12 -21 -10 -4 -10 -6 0 -6 14 -1 28 26 18
36 -3 4 -6 -1 -6 -9z"/>
<path d="M1686 1481 c-4 -6 -3 -11 3 -11 5 0 13 -9 16 -20 6 -20 55 -30 55
-10 0 5 -7 7 -15 4 -10 -4 -15 0 -15 11 0 9 -4 14 -9 10 -6 -3 -14 2 -19 11
-6 11 -11 13 -16 5z"/>
<path d="M1080 1465 c0 -8 4 -15 10 -15 5 0 7 7 4 15 -4 8 -8 15 -10 15 -2 0
-4 -7 -4 -15z"/>
<path d="M1774 1469 c-3 -6 1 -18 10 -27 13 -13 18 -14 28 -3 11 10 9 12 -7 9
-14 -2 -19 2 -17 15 3 19 -3 22 -14 6z"/>
<path d="M1176 1455 c-10 -7 -16 -18 -15 -23 2 -6 12 1 22 14 21 27 19 29 -7
9z"/>
<path d="M1290 1445 c0 -15 3 -16 9 -7 4 8 12 13 17 12 5 -1 10 2 11 7 2 5 -6
9 -17 9 -14 0 -20 -7 -20 -21z"/>
<path d="M2011 1461 c-8 -5 -9 -11 -3 -15 5 -3 12 1 16 9 6 17 6 18 -13 6z"/>
<path d="M2050 1455 c-11 -13 -10 -14 4 -9 9 3 16 10 16 15 0 13 -6 11 -20 -6z"/>
<path d="M1340 1444 c0 -8 5 -12 10 -9 6 4 8 11 5 16 -9 14 -15 11 -15 -7z"/>
<path d="M1954 1448 c-4 -7 -4 -10 1 -6 4 4 15 2 23 -5 12 -10 14 -9 11 2 -7
20 -26 25 -35 9z"/>
<path d="M990 1441 c0 -6 4 -13 10 -16 6 -3 7 1 4 9 -7 18 -14 21 -14 7z"/>
<path d="M1845 1430 c-3 -5 -1 -10 4 -10 6 0 11 5 11 10 0 6 -2 10 -4 10 -3 0
-8 -4 -11 -10z"/>
<path d="M1880 1430 c-9 -6 -10 -10 -3 -10 6 0 15 5 18 10 8 12 4 12 -15 0z"/>
<path d="M1950 1420 c0 -5 5 -10 11 -10 5 0 7 5 4 10 -3 6 -8 10 -11 10 -2 0
-4 -4 -4 -10z"/>
<path d="M2076 1413 c-6 -14 -5 -15 5 -6 7 7 10 15 7 18 -3 3 -9 -2 -12 -12z"/>
<path d="M1038 1413 c7 -3 16 -2 19 1 4 3 -2 6 -13 5 -11 0 -14 -3 -6 -6z"/>
<path d="M1212 1408 c2 -6 10 -14 16 -16 7 -2 10 2 6 12 -7 18 -28 22 -22 4z"/>
<path d="M1260 1409 c0 -5 5 -7 10 -4 6 3 10 8 10 11 0 2 -4 4 -10 4 -5 0 -10
-5 -10 -11z"/>
<path d="M1306 1407 c3 -10 9 -15 12 -12 3 3 0 11 -7 18 -10 9 -11 8 -5 -6z"/>
<path d="M1335 1410 c-3 -5 -1 -10 4 -10 6 0 11 5 11 10 0 6 -2 10 -4 10 -3 0
-8 -4 -11 -10z"/>
<path d="M1716 1411 c-4 -7 -5 -15 -2 -18 9 -9 19 4 14 18 -4 11 -6 11 -12 0z"/>
<path d="M1130 1400 c0 -5 7 -7 15 -4 8 4 15 8 15 10 0 2 -7 4 -15 4 -8 0 -15
-4 -15 -10z"/>
<path d="M1473 1384 c-20 -23 -18 -35 3 -14 6 6 15 6 24 0 12 -8 11 -10 -5
-10 -17 0 -18 -2 -5 -11 12 -9 11 -10 -7 -6 -13 3 -23 1 -23 -4 0 -5 13 -9 30
-9 28 0 29 -2 20 -26 -15 -37 -12 -46 10 -39 19 6 25 -2 21 -30 -1 -5 5 -2 12
7 8 10 18 14 22 10 5 -4 4 -1 0 7 -6 11 -4 13 11 7 10 -4 15 -4 11 0 -4 4 -2
13 5 21 9 11 7 12 -8 6 -17 -6 -17 -5 -5 10 14 18 36 22 44 10 2 -5 3 -3 1 3
-1 6 2 16 8 22 6 6 6 12 -1 16 -6 4 -11 0 -11 -8 0 -19 -16 -21 -26 -4 -5 7
-10 4 -15 -10 -5 -12 -14 -20 -21 -18 -7 1 -10 1 -5 -1 4 -3 7 -11 7 -19 0 -9
-4 -12 -10 -9 -6 4 -7 -1 -4 -12 4 -13 1 -12 -13 6 -11 13 -20 39 -21 58 -1
18 -7 42 -15 52 -12 18 -13 18 -34 -5z"/>
<path d="M1996 1394 c-9 -24 -2 -26 12 -4 7 11 8 20 3 20 -5 0 -12 -7 -15 -16z"/>
<path d="M1351 1374 c0 -11 3 -14 6 -6 3 7 2 16 -1 19 -3 4 -6 -2 -5 -13z"/>
<path d="M1326 1363 c-4 -9 -1 -20 5 -24 8 -4 6 -10 -7 -18 -11 -6 -14 -10 -9
-10 12 0 45 24 45 33 0 3 -7 6 -15 6 -9 0 -12 6 -9 15 4 8 4 15 1 15 -3 0 -8
-8 -11 -17z"/>
<path d="M1384 1371 c4 -5 1 -11 -6 -13 -7 -3 -5 -7 6 -11 9 -4 15 -3 12 2 -3
5 1 11 9 15 8 3 15 1 15 -4 0 -6 4 -10 8 -10 5 0 9 7 9 15 0 10 -10 15 -29 15
-16 0 -27 -4 -24 -9z"/>
<path d="M1760 1370 c0 -5 5 -10 11 -10 5 0 7 5 4 10 -3 6 -8 10 -11 10 -2 0
-4 -4 -4 -10z"/>
<path d="M1796 1371 c-4 -7 -5 -15 -2 -18 9 -9 19 4 14 18 -4 11 -6 11 -12 0z"/>
<path d="M1820 1371 c0 -6 4 -13 10 -16 6 -3 7 1 4 9 -7 18 -14 21 -14 7z"/>
<path d="M1170 1356 c0 -9 7 -12 21 -9 16 4 17 8 7 14 -19 13 -28 11 -28 -5z"/>
<path d="M1735 1360 c3 -5 8 -10 11 -10 2 0 4 5 4 10 0 6 -5 10 -11 10 -5 0
-7 -4 -4 -10z"/>
<path d="M1077 1340 c3 -11 7 -20 9 -20 2 0 4 9 4 20 0 11 -4 20 -9 20 -5 0
-7 -9 -4 -20z"/>
<path d="M1237 1342 c3 -7 9 -10 12 -5 3 4 10 11 15 15 4 4 -1 6 -12 5 -12 -1
-18 -6 -15 -15z"/>
<path d="M1668 1343 c-5 -18 -2 -23 13 -23 10 0 19 5 19 11 0 5 -4 8 -9 4 -5
-3 -11 3 -13 12 -3 15 -5 14 -10 -4z"/>
<path d="M980 1345 c0 -5 5 -17 10 -25 5 -8 10 -10 10 -5 0 6 -5 17 -10 25 -5
8 -10 11 -10 5z"/>
<path d="M1280 1340 c0 -6 7 -10 15 -10 8 0 15 2 15 4 0 2 -7 6 -15 10 -8 3
-15 1 -15 -4z"/>
<path d="M1406 1331 c-3 -5 0 -11 6 -14 7 -2 10 -7 7 -11 -4 -4 -13 0 -22 8
-13 13 -14 12 -14 -12 0 -15 2 -21 4 -14 7 17 23 15 23 -4 0 -8 5 -12 10 -9 6
3 10 2 10 -4 0 -5 -6 -12 -12 -14 -8 -3 -6 -6 5 -6 19 -1 23 24 6 35 -7 4 -8
9 -1 13 7 4 6 12 -3 24 -7 10 -16 14 -19 8z"/>
<path d="M1745 1319 c-4 -12 -12 -18 -21 -15 -8 3 -14 1 -14 -3 0 -5 7 -11 15
-15 8 -3 15 -1 15 5 0 6 5 7 10 4 6 -4 10 5 10 19 0 31 -6 33 -15 5z"/>
<path d="M1470 1316 c0 -2 7 -6 15 -10 8 -3 15 -1 15 4 0 6 -7 10 -15 10 -8 0
-15 -2 -15 -4z"/>
<path d="M1248 1295 c-3 -4 -4 -15 -1 -26 7 -25 39 -25 46 0 3 14 1 18 -10 14
-8 -3 -18 -1 -22 6 -4 6 -10 9 -13 6z"/>
<path d="M1350 1284 c0 -8 5 -12 10 -9 6 4 8 11 5 16 -9 14 -15 11 -15 -7z"/>
<path d="M1635 1280 c3 -5 10 -10 16 -10 5 0 9 5 9 10 0 6 -7 10 -16 10 -8 0
-12 -4 -9 -10z"/>
<path d="M1830 1286 c0 -2 7 -6 15 -10 8 -3 15 -1 15 4 0 6 -7 10 -15 10 -8 0
-15 -2 -15 -4z"/>
<path d="M1201 1264 c0 -11 3 -14 6 -6 3 7 2 16 -1 19 -3 4 -6 -2 -5 -13z"/>
<path d="M1064 1263 c10 -11 37 -12 30 -2 -3 5 -12 9 -21 9 -9 0 -13 -3 -9 -7z"/>
<path d="M1470 1261 c0 -5 7 -12 16 -15 14 -5 15 -4 4 9 -14 17 -20 19 -20 6z"/>
<path d="M1726 1256 c3 -8 14 -16 24 -19 13 -3 17 0 13 9 -3 8 -9 11 -14 8 -5
-3 -9 0 -9 5 0 6 -4 11 -10 11 -5 0 -7 -6 -4 -14z"/>
<path d="M1646 1244 c-9 -22 13 -47 29 -34 6 5 16 6 20 2 5 -4 5 -1 1 6 -4 7
-12 10 -17 7 -5 -4 -9 1 -9 9 0 22 -17 29 -24 10z"/>
<path d="M1885 1250 c-3 -5 -1 -10 4 -10 6 0 11 5 11 10 0 6 -2 10 -4 10 -3 0
-8 -4 -11 -10z"/>
<path d="M1320 1241 c0 -6 5 -13 10 -16 6 -4 7 -11 4 -17 -4 -6 -2 -8 4 -5 12
8 4 47 -9 47 -5 0 -9 -4 -9 -9z"/>
<path d="M1463 1220 c-1 -10 4 -17 12 -16 24 4 28 14 8 24 -15 9 -19 7 -20 -8z"/>
<path d="M1570 1222 c0 -7 7 -15 15 -18 8 -4 15 -12 15 -20 0 -8 3 -14 8 -14
4 0 7 13 7 28 0 16 -5 29 -12 29 -7 0 -13 -5 -13 -11 0 -6 -5 -4 -10 4 -7 10
-10 11 -10 2z"/>
<path d="M1385 1200 c-3 -5 1 -10 9 -10 8 0 18 5 21 10 3 6 -1 10 -9 10 -8 0
-18 -4 -21 -10z"/>
<path d="M1517 1193 c-10 -9 -9 -23 2 -23 5 0 11 7 15 15 5 15 -5 20 -17 8z"/>
<path d="M1230 1180 c0 -5 5 -10 11 -10 5 0 7 5 4 10 -3 6 -8 10 -11 10 -2 0
-4 -4 -4 -10z"/>
<path d="M1331 1174 c6 -7 17 -10 25 -7 20 7 18 10 -11 15 -20 4 -23 2 -14 -8z"/>
<path d="M1405 1161 c-3 -5 -1 -12 5 -16 5 -3 10 1 10 9 0 18 -6 21 -15 7z"/>
<path d="M1734 1155 c-9 -22 1 -29 15 -11 8 10 9 16 1 21 -5 3 -13 -1 -16 -10z"/>
<path d="M1460 1150 c0 -5 5 -10 11 -10 5 0 7 5 4 10 -3 6 -8 10 -11 10 -2 0
-4 -4 -4 -10z"/>
<path d="M1650 1130 c0 -6 7 -10 15 -10 8 0 15 2 15 4 0 2 -7 6 -15 10 -8 3
-15 1 -15 -4z"/>
<path d="M1472 1117 c-9 -10 -6 -17 8 -30 28 -23 37 -21 15 3 -10 11 -13 20
-7 20 7 0 12 5 12 10 0 14 -16 12 -28 -3z"/>
<path d="M1601 1103 c-7 -8 -11 -16 -8 -19 2 -2 10 2 17 11 17 20 9 27 -9 8z"/>
<path d="M1558 1054 c6 -12 8 -25 4 -29 -4 -4 3 -1 16 6 14 9 18 15 10 18 -7
2 -19 9 -27 15 -12 9 -12 8 -3 -10z"/>
<path d="M1376 1051 c-4 -5 3 -7 14 -4 23 6 26 13 6 13 -8 0 -17 -4 -20 -9z"/>
<path d="M1460 1050 c-13 -8 -12 -10 3 -10 9 0 17 5 17 10 0 12 -1 12 -20 0z"/>
<path d="M1280 1042 c0 -12 19 -26 26 -19 2 2 -2 10 -11 17 -9 8 -15 8 -15 2z"/>
<path d="M1490 1029 c-13 -9 -13 -10 2 -5 12 3 18 -2 20 -17 2 -13 6 -18 10
-11 4 6 2 18 -5 27 -9 13 -16 14 -27 6z"/>
<path d="M1545 990 c-3 -5 -1 -10 4 -10 6 0 11 5 11 10 0 6 -2 10 -4 10 -3 0
-8 -4 -11 -10z"/>
<path d="M1455 960 c-10 -11 -15 -20 -11 -20 4 0 16 9 28 20 12 11 17 20 11
20 -5 0 -18 -9 -28 -20z"/>
<path d="M1538 963 c7 -3 16 -2 19 1 4 3 -2 6 -13 5 -11 0 -14 -3 -6 -6z"/>
<path d="M1655 960 c-3 -6 1 -7 9 -4 18 7 21 14 7 14 -6 0 -13 -4 -16 -10z"/>
<path d="M1586 947 c-16 -12 -16 -13 3 -13 11 0 18 3 15 7 -2 4 2 10 8 12 7 3
8 6 2 6 -5 1 -18 -5 -28 -12z"/>
<path d="M1410 939 c0 -5 5 -7 10 -4 6 3 10 8 10 11 0 2 -4 4 -10 4 -5 0 -10
-5 -10 -11z"/>
<path d="M1511 903 c7 -12 15 -20 18 -17 3 2 -3 12 -13 22 -17 16 -18 16 -5
-5z"/>
<path d="M1120 1091 c0 -10 19 -25 25 -20 1 2 -3 10 -11 17 -8 7 -14 8 -14 3z"/>
</g>
</svg>
