<svg id="Capa_1" data-name="Capa 1" xmlns="http://www.w3.org/2000/svg" viewBox="0 0 1199.39 955.32">
  <defs>
    <style>
      .cls-1 {
        fill: #3d3d3d;
      }
    </style>
  </defs>
  <title>EJP-logo-c</title>
  <g>
    <g id="_Group_" data-name="&lt;Group&gt;">
      <path id="_Path_" data-name="&lt;Path&gt;" class="cls-1" d="M109.48,343.11c-15.34,1.31-49.69,34.95-62.75,50.8S-4,497.11,62.48,525.62c48.86,21,95.11-18.23,131.37-73.54,7.5-11.43,13.6-21,18.54-29-.11,28.84,5.93,52.92,24.08,51.83,41-2.45,67.51-93.23,82.82-138.56s5.74-52.46-4.67-45.11-45.79,153.16-64.7,152.8-.58-81.24.65-95.94-14.8-23.24-20.22-15.93c-5.73,7.72-12.57,33.16-15.92,60.47-7.35,10.54-18,27.6-34.31,51.7-32,47.29-101.19,76.55-125.23,35S115.78,360,129.12,353.82c19.13-8.91,46-10.75,51.16-21.38,10.06-20.89-36-7.71-40.47-8.11s-85.93,3.25-96.46-31.42c-15.74-51.84,41.32-106,94.17-136.23s156.37-63.07,181.23-20.56-16.15,89.67-72,103.47-69.41-15.17-72.5-22.79c-4.32-10.67.68-30-3.27-36.55-4.53-7.53-25.24,9.9-9.11,49.84s71.35,45,107.06,32.37C321.13,243.92,367,187,330.85,130.94S242,66.74,149.23,105.8C40.12,151.73,2,226.74,24.46,293.91,41.28,344.21,109.48,343.11,109.48,343.11Z"/>
      <path id="_Compound_Path_" data-name="&lt;Compound Path&gt;" class="cls-1" d="M340.26,477.29c52.49-.21,93.69-110.89,109.46-143.23l.73-1.08c12.67,4.09,32.85-1.24,32.85-1.24S458.43,398.87,451.79,414s-22.7,65.48,16.11,65.48c22.49,0,52.25-43.58,70.06-73.54-9.63,34.73-12.55,69.22,9.54,71.09,41.67,3.52,79.24-94.67,79.24-94.67s-14.12,58.11-27.12,103a43.55,43.55,0,0,0-8.4,1.56c-62.14,18.38-64.22,63.9-37.37,76.38,19.86,9.24,40.41,5.78,56.13-24.47,4.38-8.43,10.18-22.85,16.33-40.18,1.81.54,3.69,1.12,5.66,1.76,29.12,9.44,59.2,58.56,172.16,59.51,87.64.74,104.36-37.61,107.46-54.84a3.09,3.09,0,0,0-4.73-3.1c-9.05,6-32.87,15.95-94.42,21.66-69.9,6.48-136-24.91-182.56-35.28,15-43.89,30.68-101.07,32.39-129.34,2.56-42.35-19-36.93-20.32-35.51-2.55,2.82-50.23,121.81-70.31,120.37-23.21-1.67,29.05-114.92,23.56-121.08,0,0-15.21-5.46-28.62,12.84a49.28,49.28,0,0,0-2.86,4.53h0v0s0,.05,0,.08C541,381.11,491.25,450,480.31,447.56c-7.39-1.64-4.26-18.76.25-41.12,3.23-16,19.94-71.49,21.49-78.7s-21.45-12-38.34-17.79c7.49-15.4,13.18-33.54,2.33-39.5-20.47-11.24-29.91,3.65-34.31,22-3.53,14.79,4.47,27.38,7.84,31.85-13.77,30.25-62.84,134.21-86.8,134.21-12.33,0-13.83-15.44-10.53-34.33,7.05-3.77,15.23-9.52,24.3-18.3,31.1-30.08,44.85-63.72,32.11-76S352,321.3,330,363.1,294.85,477.48,340.26,477.29Zm224,75.23c-10.34,0-26.77-15.53,9.68-46,7.88-6.57,14.3-10.77,22.93-12-3.35,11.19-6.55,21.13-9.32,28.49C582.46,536.67,573.87,552.52,564.28,552.52Zm-115.44-261c1.37-5.16,4.47-9.89,8.09-8.88,4.7,1.33,1.08,10.85-4.13,20.67a34.22,34.22,0,0,1-2.49-2.73A10.91,10.91,0,0,1,448.84,291.48Zm-80.77,66c12.23-12.23,16.55-11.72,15.8,1.65-.69,12.23-13.18,34.25-38.81,52.25C351.12,388,362.05,363.5,368.07,357.49Z"/>
      <path id="_Compound_Path_2" data-name="&lt;Compound Path&gt;" class="cls-1" d="M1179.89,363.85c-12-21.67-37.47-29.34-24.84-8.65,9.14,15,9.62,27.07-.26,50.7-8.8,21.06-14.1,28.75-47.37,51.75-4.28,2.63-9.07,5.41-14.37,8.28,12.38-39.41,23.63-83.29,25.06-106.94,2.56-42.35-19-36.93-20.32-35.51-2.56,2.82-50.23,121.81-70.31,120.37-23.21-1.67,29-114.92,23.55-121.08,0,0-15.21-5.46-28.61,12.84-2.6,3.55-6.49,10.95-10.75,20.54-25.77,48.08-49.51,84.57-62.5,83.85-14.26-.8,18.72-78.79,21.84-86.75,1.52-3.87-5.07-6.79-12.25-8.77,3.52-8.35,4.61-19.92.47-26.91-6.9-11.63-33.2-13-53.9,0s-46.46,54.77-60.26,90.37c-.12.29-.21.56-.31.84-10.48,16.38-30.19,39.21-40.5,41.15-13.68,2.57-12.81-51.66-12.81-51.66s29.62-23.7,74.92-124,34.78-131.81,21.31-134.33c-20.66-3.88-40,24.54-71.68,83.31-18.88,35.06-33.22,78.4-42.53,112.74-3-5.16-12.56-16.43-36.86-10.51-31,7.55-57.52,40.69-66.22,83.83s7.35,72.65,35.76,68.53c15.94-2.31,36.26-19.8,53.64-39.36,2.45,20.56,10.35,38.58,30.36,38.58,18,0,34-17.33,45.83-35.59-2.11,17.43,2,29.1,12.92,32.19,16.07,4.57,36.31-.3,70-58.64-11.17,44.07,1.34,53.72,9.32,55.22,8.47,1.59,28.2,3.18,53.6-39.4,3.39-5.67,6.7-11.33,9.9-16.88-7.83,31.84-8.77,61.36,11.62,63.09,41.67,3.52,79.24-94.67,79.24-94.67s-13.72,56.42-26.55,101c-2.91,1.18-5.89,2.36-9,3.54-60.57,23-64.22,63.9-37.37,76.38,19.86,9.24,40.41,5.78,56.12-24.47,5.68-10.91,13.73-31.88,21.83-56.18a4.58,4.58,0,0,0,2.4-.59c9.84-4.53,46.83-18.19,62.47-31.38C1188.22,420.55,1191.92,385.51,1179.89,363.85ZM836,251c22.6-51,41.33-85.25,49.73-82s-12.92,65.87-22.61,87.19-45.21,95.46-65.23,116.89C797.91,373.08,813.41,302,836,251ZM712,456.31c-28.31-.47,13.62-115.79,38.15-115,11.33.34,16.66,6,19.16,10.7-3.93,15.89-6.52,28.67-7.69,36a224.82,224.82,0,0,0-2.76,31.69C741.44,438.76,722.45,456.48,712,456.31Zm163.72-11.4c-16.1-6.16,15.12-77.36,28.16-93.79s30.62-33.75,39.33-30.81c5.2,1.76,2.4,12.29,1.08,21.22l-1.33-.18s-4.15,8.57-13.21,37.09C914.45,405.11,887.05,449.24,875.74,444.91Zm144.38,107.61c-10.34,0-25.52-26.17,16-49.13,5.62-3.11,11.08-5.78,16.39-8.15-3.28,10.93-6.42,20.63-9.13,27.85C1038.3,536.67,1029.71,552.52,1020.12,552.52Z"/>
      <path id="_Compound_Path_3" data-name="&lt;Compound Path&gt;" class="cls-1" d="M1026.22,636.73c9.15,15,9.63,27.06-.25,50.69-8.81,21.06-14.1,28.75-47.38,51.75-4.27,2.63-9.06,5.41-14.36,8.29,12.38-39.41,23.62-83.3,25-107,2.56-42.35-19-36.92-20.32-35.51-2.55,2.82-50.22,121.81-70.31,120.37-23.21-1.67,29.05-114.92,23.56-121.07,0,0-15.21-5.47-28.61,12.83-3.49,4.75-9.26,16.37-15.16,31-19.41,30.74-57.28,86.66-78.27,90.71-12.23,2.36-13.61-12.44-10.21-31.26a180,180,0,0,0,24-18.19c32.4-28.67,44.85-63.72,32.11-76s-46.61-8.66-68.67,33.14a199.4,199.4,0,0,0-12,27.67c-13.2,24.95-33.68,60.22-43.26,58.53-5.63-1,15.17-69.88,19.69-94.29s-7.69-28-18.54-28c-18.34,0-62.85,99.94-67.37,97.23S669.46,643,674,630.3s-13.78-26.81-21.7-19.38c-3.39,3.19-8.78,16.42-14.75,37-24.8,39-59.45,84.29-68.35,82.32-7.4-1.64-4.27-18.76.25-41.13,3.22-16,19.94-71.49,21.48-78.7s-21.69-12-38.6-17.88-17.27-22.1-22.72-18.43c-4.66,3.14-6.43,21.11,1.21,35.17a13,13,0,0,0,6.44,5.59c-8.78,24-43.36,116.23-55.24,116.23-9.14,0,10.73-66.11,15.25-92.34s-12.55-39.19-18.54-30.11C465.45,628.7,429.52,733,410.92,736.14s17.16-95.28,21.68-108.88-20.13-28.8-28.05-20.82c-1.23,1.24-2.87,4.11-4.8,8.34-3.51,1.39-8.74,4.41-14.68,11.37-5.46,6-16.48,12.16-27.83,15.76,6.26-33,3.67-63-14.16-65.18-14.74-1.78-23.87,9.58-29,20.07-4.81.52-11,3.54-15.07,7.23-7.32,6.58-19.64,17.08-34,48.16S244,756.88,281.9,759.56s57.37-53.9,69.68-94.63q1-3.34,1.91-6.72A123,123,0,0,0,390.41,640a607.62,607.62,0,0,0-19.69,82.71c-4.76,28.47,8.76,41.67,26.38,41.52,32.65-.29,64.81-89.48,68.15-96.12,0,0-31.12,95.33,1.14,94.59,27.3-.62,48.72-59.75,83.4-145.51a93.58,93.58,0,0,0,22.37-2.76s-24.86,67.12-31.51,82.27-22.7,65.48,16.11,65.48c22.81,0,53.07-44.77,70.78-74.76q-3,13.51-5.91,28.76C615.41,749.06,625,761,638.26,761c12.15,0,68.32-122.13,72.84-122.13s-14.05,45.75-16.76,66.54-14.13,56.31,12.62,57c15.7.43,35-25.23,50.14-50.53-1.68,23.06,4.52,42.5,24.2,48.88,22.44,7.28,56.33-29.45,81.18-63.52-7.44,31.17-8,59.65,12,61.35,41.67,3.53,79.25-94.67,79.25-94.67s-13.72,56.42-26.55,101c-2.92,1.18-5.89,2.37-9,3.54-60.58,23-64.22,63.9-37.38,76.38,19.87,9.24,40.42,5.78,56.13-24.47,5.67-10.91,13.73-31.87,21.83-56.17a4.74,4.74,0,0,0,2.4-.6c9.84-4.52,46.82-18.18,62.47-31.37,35.7-30.11,39.41-65.14,27.37-86.81S1013.59,616,1026.22,636.73Zm-697.9-43.58c4.23-3.38,18.2-18.2,14.56,27.4a244.74,244.74,0,0,1-3.24,24.4c-4.77,0-9-.89-12.16-3C314,632.85,324.1,596.53,328.32,593.15ZM299,723c-21,1-10-48.87-1.79-75.44a94.5,94.5,0,0,1,8.51-19.27c-1.14,13.8,1.33,30,18.67,32.58a57.63,57.63,0,0,0,11.69.45C327.94,694,314,722.28,299,723Zm516.43-82c12.24-12.23,16.55-11.72,15.8,1.65-.68,12.16-13,34-38.4,52C798.89,671.48,809.52,646.89,815.46,640.94ZM891.29,834c-10.33,0-25.52-26.16,16-49.13,5.62-3.11,11.08-5.78,16.38-8.15-3.28,10.93-6.41,20.63-9.12,27.85C909.48,818.19,900.88,834,891.29,834Z"/>
      <path id="_Path_2" data-name="&lt;Path&gt;" class="cls-1" d="M261.94,572.13c7-.3,54.3-10.9,78.52-45.14,8.65-12.23,10.9-22.08,9.18-30.21a4.25,4.25,0,0,0-7.94-1.16c-20.8,40-75.54,44.12-107.38,51.65-36.57,8.65-115.32,6.12-151.45,52.12-33.71,42.92-6.59,60.9,4.37,66a2.36,2.36,0,0,0,3.36-2.46c-5.07-35.38,21.31-52.14,52.94-65,29.42-12,74.29-19.83,86.55-21.84a2.36,2.36,0,0,1,2.72,2.74c-5.37,32.89-27,101.44-55,179.28-29,80.5-69.58,125-109.49,118-21.93-3.85-38.69-48.26-15.21-95.11,16-31.87,64.69-43.16,79.25-43.35a2.39,2.39,0,0,0,1.23-4.39C113.1,719.43,53.34,715.11,20.36,780c-36.11,71,13.15,111.09,41.16,115.21,41.58,6.14,89.93,15.18,137.75-93.29,49.59-112.49,58.89-212.39,60.44-227.66A2.33,2.33,0,0,1,261.94,572.13Z"/>
    </g>
    <path id="_Compound_Path_4" data-name="&lt;Compound Path&gt;" class="cls-1" d="M653.23,136.57l-48.5-15.43,15.59-37.4a3.17,3.17,0,0,0-4.07-4.18L578.43,94.1,563.34,46.68a3.17,3.17,0,0,0-6,0L542.21,94.1,504.38,79.56a3.17,3.17,0,0,0-4.06,4.18l15.58,37.4-48.49,15.43a3.17,3.17,0,0,0,0,6L515.9,158l-15.58,37.4a3.17,3.17,0,0,0,4.06,4.18l37.83-14.54L557.3,232.5a3.17,3.17,0,0,0,6,0l15.09-47.43,37.82,14.55a3.24,3.24,0,0,0,1.14.21,3.17,3.17,0,0,0,2.93-4.39L604.73,158l48.5-15.43a3.17,3.17,0,0,0,0-6ZM563.49,68.06l15.42,48.46-15.42,15.41Zm-6.34,63.87-15.42-15.41,15.42-48.46Zm-4.49,4.49H488.79L537.24,121Zm0,6.34-15.41,15.42-48.46-15.42Zm4.49,4.48v63.88l-15.42-48.46Zm6.34,0,15.42,15.42-15.42,48.46Zm4.48-4.48h63.88l-48.46,15.42Zm0-6.34L583.39,121l48.46,15.42ZM588.44,116,608.3,96.09l-9.63,23.12Zm16.15-25.11L584,111.47l-3.6-11.31Zm-67.91,20.63L516.05,90.84l24.23,9.31ZM512.34,96.09,532.2,116,522,119.21Zm19.86,67.14-19.86,19.86L522,160Zm-16.15,25.11,20.63-20.63,3.6,11.31ZM584,167.71l20.63,20.63L580.36,179Zm24.34,15.38-19.86-19.86L598.67,160Z"/>
    <g>
      <path class="cls-1" d="M371.05,837.38h21.16a26.54,26.54,0,0,1,8.48,1.27,18,18,0,0,1,6.44,3.64A16.3,16.3,0,0,1,411.2,848a18.59,18.59,0,0,1,1.41,7.37v.15a17.65,17.65,0,0,1-1.69,7.94,16.48,16.48,0,0,1-4.61,5.71,20.47,20.47,0,0,1-6.84,3.49,28.87,28.87,0,0,1-8.38,1.19H380.4v17.25h-9.35Zm20.36,27.92q5.38,0,8.5-2.7a8.72,8.72,0,0,0,3.12-6.93v-.15q0-4.77-3.16-7.2a13.5,13.5,0,0,0-8.46-2.43h-11V865.3Z"/>
      <path class="cls-1" d="M447.89,892a28.67,28.67,0,0,1-11.35-2.18A26.68,26.68,0,0,1,422,875.07a27.74,27.74,0,0,1-2.07-10.69v-.16a27.83,27.83,0,0,1,2.07-10.7,27,27,0,0,1,5.83-8.81,28,28,0,0,1,8.89-6,30.31,30.31,0,0,1,22.7,0,26.83,26.83,0,0,1,8.82,5.94,27.21,27.21,0,0,1,5.76,8.78,27.83,27.83,0,0,1,2.07,10.7v.15a27.79,27.79,0,0,1-2.07,10.7,27.13,27.13,0,0,1-5.83,8.82A28,28,0,0,1,447.89,892Zm.15-8.66a17.56,17.56,0,0,0,7.3-1.5,17.28,17.28,0,0,0,5.69-4.06,18.9,18.9,0,0,0,3.7-6,20.24,20.24,0,0,0,1.34-7.36v-.16a20.58,20.58,0,0,0-1.34-7.4,18.56,18.56,0,0,0-3.74-6.06,18.18,18.18,0,0,0-5.77-4.1,18.45,18.45,0,0,0-14.62,0,17.21,17.21,0,0,0-5.69,4.07,18.72,18.72,0,0,0-3.7,6,20,20,0,0,0-1.34,7.36v.15a20.29,20.29,0,0,0,1.34,7.4,17.95,17.95,0,0,0,9.5,10.17A17.5,17.5,0,0,0,448,883.32Z"/>
      <path class="cls-1" d="M487.46,837.38h20a31.83,31.83,0,0,1,11.54,2,27.41,27.41,0,0,1,9.05,5.64,25.13,25.13,0,0,1,5.87,8.47A26.72,26.72,0,0,1,536,864.07v.15a27,27,0,0,1-2.07,10.59,25,25,0,0,1-5.87,8.51A27.81,27.81,0,0,1,519,889a31.21,31.21,0,0,1-11.54,2.07h-20Zm19.94,45.17a21.11,21.11,0,0,0,7.67-1.34,16.78,16.78,0,0,0,5.87-3.78,17.15,17.15,0,0,0,3.76-5.78,19.42,19.42,0,0,0,1.34-7.27v-.16a19.75,19.75,0,0,0-1.34-7.31,17.13,17.13,0,0,0-3.76-5.82,17.42,17.42,0,0,0-5.87-3.81,20.5,20.5,0,0,0-7.67-1.39H496.82v36.66Z"/>
      <path class="cls-1" d="M572.44,892a27.24,27.24,0,0,1-10.89-2.14,26.77,26.77,0,0,1-14.41-14.65,28.09,28.09,0,0,1-2.08-10.81v-.16a28.17,28.17,0,0,1,2.05-10.77,27,27,0,0,1,14.51-14.8,27.94,27.94,0,0,1,11.2-2.19,34.62,34.62,0,0,1,6.71.61,27.41,27.41,0,0,1,5.56,1.73,25.41,25.41,0,0,1,4.68,2.65,36.1,36.1,0,0,1,4.06,3.37l-6.06,7A29.72,29.72,0,0,0,581,847a17.78,17.78,0,0,0-8.21-1.84,16.75,16.75,0,0,0-7.09,1.49,17.53,17.53,0,0,0-5.64,4.07,18.33,18.33,0,0,0-3.68,6,20.61,20.61,0,0,0-1.3,7.36v.15a20.91,20.91,0,0,0,1.3,7.4,18.7,18.7,0,0,0,3.68,6.1,17.17,17.17,0,0,0,5.64,4.1,16.76,16.76,0,0,0,7.09,1.5,17.77,17.77,0,0,0,8.44-1.88,33,33,0,0,0,7-5.1l6.06,6.14a35.29,35.29,0,0,1-4.34,3.94,28.43,28.43,0,0,1-4.87,3,24.57,24.57,0,0,1-5.71,1.91A33.1,33.1,0,0,1,572.44,892Z"/>
      <path class="cls-1" d="M623.05,837h8.74l23.62,54.06h-10l-5.44-13H614.61l-5.52,13h-9.66Zm13.5,32.74-9.28-21.47-9.2,21.47Z"/>
      <path class="cls-1" d="M683.48,891.83a33.71,33.71,0,0,1-11.88-2.11,32.19,32.19,0,0,1-10.51-6.48l5.67-6.75a33,33,0,0,0,7.9,5.18,21.79,21.79,0,0,0,9.05,1.8,11.66,11.66,0,0,0,6.94-1.84,5.76,5.76,0,0,0,2.57-4.91v-.15a6.11,6.11,0,0,0-.5-2.57,5.63,5.63,0,0,0-1.84-2.11,14.69,14.69,0,0,0-3.69-1.84,54.64,54.64,0,0,0-6.12-1.69,58.25,58.25,0,0,1-7.65-2.26,20.41,20.41,0,0,1-5.61-3.07,11.91,11.91,0,0,1-3.46-4.41,15.07,15.07,0,0,1-1.19-6.28v-.16a14.38,14.38,0,0,1,1.37-6.32,14.55,14.55,0,0,1,3.76-4.91,17.58,17.58,0,0,1,5.77-3.19,22.75,22.75,0,0,1,7.35-1.15A30.72,30.72,0,0,1,692,838.34a31.71,31.71,0,0,1,8.86,5l-5.06,7.14a32.87,32.87,0,0,0-7.29-4.11,19.84,19.84,0,0,0-7.28-1.42,10.1,10.1,0,0,0-6.44,1.84,5.59,5.59,0,0,0-2.3,4.53v.15a6.47,6.47,0,0,0,.53,2.72,5.34,5.34,0,0,0,2,2.15,16.6,16.6,0,0,0,3.93,1.8c1.66.57,3.78,1.15,6.34,1.77a59.53,59.53,0,0,1,7.5,2.38,19,19,0,0,1,5.42,3.18,12.56,12.56,0,0,1,3.26,4.37,13.94,13.94,0,0,1,1.12,5.79v.15a15.62,15.62,0,0,1-1.41,6.75,14.34,14.34,0,0,1-3.92,5.06,17.3,17.3,0,0,1-6,3.15A26.67,26.67,0,0,1,683.48,891.83Z"/>
      <path class="cls-1" d="M726.89,846.12h-17v-8.74h43.56v8.74h-17v44.94h-9.51Z"/>
    </g>
  </g>
</svg>
